<?xml version="1.0" encoding="UTF-8" standalone="no"?>
<!DOCTYPE svg PUBLIC "-//W3C//DTD SVG 1.1//EN"
 "http://www.w3.org/Graphics/SVG/1.1/DTD/svg11.dtd">
<!-- Generated by graphviz version 2.38.0 (20140413.2041)
 -->
<!-- Title: snakemake_dag Pages: 1 -->
<svg width="290pt" height="260pt"
 viewBox="0.00 0.00 289.64 260.00" xmlns="http://www.w3.org/2000/svg" xmlns:xlink="http://www.w3.org/1999/xlink">
<g id="graph0" class="graph" transform="scale(1 1) rotate(0) translate(4 256)">
<title>snakemake_dag</title>
<polygon fill="white" stroke="none" points="-4,4 -4,-256 285.64,-256 285.64,4 -4,4"/>
<!-- 0 -->
<g id="node1" class="node"><title>0</title>
<path fill="none" stroke="#56d8d8" stroke-width="2" d="M155.82,-36C155.82,-36 125.82,-36 125.82,-36 119.82,-36 113.82,-30 113.82,-24 113.82,-24 113.82,-12 113.82,-12 113.82,-6 119.82,-0 125.82,-0 125.82,-0 155.82,-0 155.82,-0 161.82,-0 167.82,-6 167.82,-12 167.82,-12 167.82,-24 167.82,-24 167.82,-30 161.82,-36 155.82,-36"/>
<text text-anchor="middle" x="140.82" y="-15" font-family="sans" font-size="10.00">all</text>
</g>
<!-- 1 -->
<g id="node2" class="node"><title>1</title>
<path fill="none" stroke="#d85656" stroke-width="2" d="M119.46,-108C119.46,-108 12.1797,-108 12.1797,-108 6.17968,-108 0.179684,-102 0.179684,-96 0.179684,-96 0.179684,-84 0.179684,-84 0.179684,-78 6.17968,-72 12.1797,-72 12.1797,-72 119.46,-72 119.46,-72 125.46,-72 131.46,-78 131.46,-84 131.46,-84 131.46,-96 131.46,-96 131.46,-102 125.46,-108 119.46,-108"/>
<text text-anchor="middle" x="65.8198" y="-87" font-family="sans" font-size="10.00">featureCounts_unionExon</text>
</g>
<!-- 1&#45;&gt;0 -->
<g id="edge1" class="edge"><title>1&#45;&gt;0</title>
<path fill="none" stroke="grey" stroke-width="2" d="M84.3592,-71.6966C93.6231,-63.0503 104.982,-52.4486 115.077,-43.027"/>
<polygon fill="grey" stroke="grey" stroke-width="2" points="117.571,-45.4863 122.494,-36.1043 112.795,-40.3688 117.571,-45.4863"/>
</g>
<!-- 2 -->
<g id="node3" class="node"><title>2</title>
<path fill="none" stroke="#d85656" stroke-width="2" d="M269.46,-108C269.46,-108 162.18,-108 162.18,-108 156.18,-108 150.18,-102 150.18,-96 150.18,-96 150.18,-84 150.18,-84 150.18,-78 156.18,-72 162.18,-72 162.18,-72 269.46,-72 269.46,-72 275.46,-72 281.46,-78 281.46,-84 281.46,-84 281.46,-96 281.46,-96 281.46,-102 275.46,-108 269.46,-108"/>
<text text-anchor="middle" x="215.82" y="-87" font-family="sans" font-size="10.00">featureCounts_unionExon</text>
</g>
<!-- 2&#45;&gt;0 -->
<g id="edge2" class="edge"><title>2&#45;&gt;0</title>
<path fill="none" stroke="grey" stroke-width="2" d="M197.28,-71.6966C188.017,-63.0503 176.658,-52.4486 166.563,-43.027"/>
<polygon fill="grey" stroke="grey" stroke-width="2" points="168.845,-40.3688 159.146,-36.1043 164.068,-45.4863 168.845,-40.3688"/>
</g>
<!-- 3 -->
<g id="node4" class="node"><title>3</title>
<path fill="none" stroke="#59d856" stroke-width="2" d="M80.8198,-180C80.8198,-180 50.8198,-180 50.8198,-180 44.8198,-180 38.8198,-174 38.8198,-168 38.8198,-168 38.8198,-156 38.8198,-156 38.8198,-150 44.8198,-144 50.8198,-144 50.8198,-144 80.8198,-144 80.8198,-144 86.8198,-144 92.8198,-150 92.8198,-156 92.8198,-156 92.8198,-168 92.8198,-168 92.8198,-174 86.8198,-180 80.8198,-180"/>
<text text-anchor="middle" x="65.8198" y="-159" font-family="sans" font-size="10.00">hisat2</text>
</g>
<!-- 3&#45;&gt;1 -->
<g id="edge3" class="edge"><title>3&#45;&gt;1</title>
<path fill="none" stroke="grey" stroke-width="2" d="M65.8198,-143.697C65.8198,-135.983 65.8198,-126.712 65.8198,-118.112"/>
<polygon fill="grey" stroke="grey" stroke-width="2" points="69.3199,-118.104 65.8198,-108.104 62.3199,-118.104 69.3199,-118.104"/>
</g>
<!-- 4 -->
<g id="node5" class="node"><title>4</title>
<path fill="none" stroke="#59d856" stroke-width="2" d="M230.82,-180C230.82,-180 200.82,-180 200.82,-180 194.82,-180 188.82,-174 188.82,-168 188.82,-168 188.82,-156 188.82,-156 188.82,-150 194.82,-144 200.82,-144 200.82,-144 230.82,-144 230.82,-144 236.82,-144 242.82,-150 242.82,-156 242.82,-156 242.82,-168 242.82,-168 242.82,-174 236.82,-180 230.82,-180"/>
<text text-anchor="middle" x="215.82" y="-159" font-family="sans" font-size="10.00">hisat2</text>
</g>
<!-- 4&#45;&gt;2 -->
<g id="edge4" class="edge"><title>4&#45;&gt;2</title>
<path fill="none" stroke="grey" stroke-width="2" d="M215.82,-143.697C215.82,-135.983 215.82,-126.712 215.82,-118.112"/>
<polygon fill="grey" stroke="grey" stroke-width="2" points="219.32,-118.104 215.82,-108.104 212.32,-118.104 219.32,-118.104"/>
</g>
<!-- 5 -->
<g id="node6" class="node"><title>5</title>
<path fill="none" stroke="#d6d856" stroke-width="2" d="M91.794,-252C91.794,-252 39.8457,-252 39.8457,-252 33.8457,-252 27.8457,-246 27.8457,-240 27.8457,-240 27.8457,-228 27.8457,-228 27.8457,-222 33.8457,-216 39.8457,-216 39.8457,-216 91.794,-216 91.794,-216 97.794,-216 103.794,-222 103.794,-228 103.794,-228 103.794,-240 103.794,-240 103.794,-246 97.794,-252 91.794,-252"/>
<text text-anchor="middle" x="65.8198" y="-236" font-family="sans" font-size="10.00">fastp</text>
<text text-anchor="middle" x="65.8198" y="-226" font-family="sans" font-size="10.00">sample: test1</text>
</g>
<!-- 5&#45;&gt;3 -->
<g id="edge5" class="edge"><title>5&#45;&gt;3</title>
<path fill="none" stroke="grey" stroke-width="2" d="M65.8198,-215.697C65.8198,-207.983 65.8198,-198.712 65.8198,-190.112"/>
<polygon fill="grey" stroke="grey" stroke-width="2" points="69.3199,-190.104 65.8198,-180.104 62.3199,-190.104 69.3199,-190.104"/>
</g>
<!-- 6 -->
<g id="node7" class="node"><title>6</title>
<path fill="none" stroke="#d6d856" stroke-width="2" d="M241.794,-252C241.794,-252 189.846,-252 189.846,-252 183.846,-252 177.846,-246 177.846,-240 177.846,-240 177.846,-228 177.846,-228 177.846,-222 183.846,-216 189.846,-216 189.846,-216 241.794,-216 241.794,-216 247.794,-216 253.794,-222 253.794,-228 253.794,-228 253.794,-240 253.794,-240 253.794,-246 247.794,-252 241.794,-252"/>
<text text-anchor="middle" x="215.82" y="-236" font-family="sans" font-size="10.00">fastp</text>
<text text-anchor="middle" x="215.82" y="-226" font-family="sans" font-size="10.00">sample: test2</text>
</g>
<!-- 6&#45;&gt;4 -->
<g id="edge6" class="edge"><title>6&#45;&gt;4</title>
<path fill="none" stroke="grey" stroke-width="2" d="M215.82,-215.697C215.82,-207.983 215.82,-198.712 215.82,-190.112"/>
<polygon fill="grey" stroke="grey" stroke-width="2" points="219.32,-190.104 215.82,-180.104 212.32,-190.104 219.32,-190.104"/>
</g>
</g>
</svg>
